<?xml version="1.0" encoding="utf-8"?>
<!-- Generator: Adobe Illustrator 17.0.0, SVG Export Plug-In . SVG Version: 6.00 Build 0)  -->
<!DOCTYPE svg PUBLIC "-//W3C//DTD SVG 1.1//EN" "http://www.w3.org/Graphics/SVG/1.1/DTD/svg11.dtd">
<svg version="1.1" id="Layer_1" xmlns="http://www.w3.org/2000/svg" xmlns:xlink="http://www.w3.org/1999/xlink" x="0px" y="0px"
	 width="141.816px" height="41.633px" viewBox="0 0 141.816 41.633" enable-background="new 0 0 141.816 41.633"
	 xml:space="preserve">
<path d="M127.154,41.194h3.567l11.095-23.196V15.73h-16.079v2.854h12.467v0.073L127.154,41.194z M96.724,41.194h14.9v-2.799h-11.442
	v-9.604h10.226v-2.799h-10.226v-8.396h10.857v-2.799H96.724V41.194z M73.611,38.002c2.579,2.451,5.863,3.466,9.851,3.466
	c3.558,0,6.558-0.859,8.076-1.436V27.309h-8.662v2.744h5.314v7.912c-0.777,0.393-2.268,0.705-4.491,0.705
	c-6.183,0-10.171-3.97-10.171-10.693c0-6.613,4.189-10.601,10.601-10.601c2.653,0,4.418,0.503,5.808,1.134l0.823-2.772
	c-1.125-0.512-3.549-1.216-6.558-1.216c-8.836,0-14.278,5.79-14.278,13.61C69.924,32.258,71.333,35.798,73.611,38.002z
	 M25.738,41.194h3.457V17.705h8.067v-2.908H17.708v2.908h8.031V41.194z M0,39.913c1.409,0.933,4.244,1.72,6.796,1.72
	c6.238,0,9.22-3.558,9.22-7.628c0-3.878-2.241-5.991-6.713-7.756c-3.65-1.409-5.259-2.625-5.259-5.086
	c0-1.802,1.372-3.96,4.985-3.96c2.396,0,4.162,0.787,5.021,1.253l0.905-2.78c-1.134-0.631-3.137-1.253-5.808-1.253
	c-5.14,0-8.598,3.055-8.598,7.125c0,3.723,2.707,6,7.024,7.482c3.576,1.372,4.985,2.781,4.985,5.25c0,2.661-2.039,4.5-5.534,4.5
	c-2.351,0-4.591-0.741-6.119-1.719L0,39.913z"/>
<polygon fill-rule="evenodd" clip-rule="evenodd" fill="#A3238E" points="37.209,41.243 34.942,41.243 63.759,0 66.268,0 
	66.268,41.08 64.039,41.08 64.039,2.226 "/>
</svg>
