<?xml version="1.0" encoding="utf-8"?>
<!-- Generator: Adobe Illustrator 17.0.0, SVG Export Plug-In . SVG Version: 6.00 Build 0)  -->
<!DOCTYPE svg PUBLIC "-//W3C//DTD SVG 1.1//EN" "http://www.w3.org/Graphics/SVG/1.1/DTD/svg11.dtd">
<svg version="1.1" id="Layer_1" xmlns="http://www.w3.org/2000/svg" xmlns:xlink="http://www.w3.org/1999/xlink" x="0px" y="0px"
	 width="245.419px" height="276.251px" viewBox="0 0 245.419 276.251" enable-background="new 0 0 245.419 276.251"
	 xml:space="preserve">
<path fill-rule="evenodd" clip-rule="evenodd" fill="#E3000F" d="M174.633,180.51c0,28.741,25.804,54.642,54.642,54.642h6.691
	v-5.576c0-29.306-26.451-55.757-55.757-55.757h-5.576V180.51z"/>
<path fill="none" stroke="#FFFFFF" stroke-width="0.5" stroke-miterlimit="22.9256" d="M174.633,180.51
	c0,28.741,25.804,54.642,54.642,54.642h6.691v-5.576c0-29.306-26.451-55.757-55.757-55.757h-5.576V180.51z"/>
<path fill-rule="evenodd" clip-rule="evenodd" fill="#A61380" d="M173.518,97.989v3.346h6.691c28.835,0,54.642-25.807,54.642-54.642
	v-6.691c-11.498,0-17.73,0.716-28.237,5.218c-6.712,2.875-11.857,7.574-16.654,12.34C180.556,66.903,173.518,79.696,173.518,97.989z
	"/>
<path fill="none" stroke="#FFFFFF" stroke-width="0.5" stroke-miterlimit="22.9256" d="M173.518,97.989v3.346h6.691
	c28.835,0,54.642-25.807,54.642-54.642v-6.691c-11.498,0-17.73,0.716-28.237,5.218c-6.712,2.875-11.857,7.574-16.654,12.34
	C180.556,66.903,173.518,79.696,173.518,97.989z"/>
<path fill-rule="evenodd" clip-rule="evenodd" fill="#009EE3" d="M39.7,44.462c0,34.303,25.723,57.988,61.333,57.988
	c0-18.844-3.246-32.026-16.974-45.474C71.681,44.85,58.629,41.117,39.7,41.117V44.462z"/>
<path fill="none" stroke="#FFFFFF" stroke-width="0.5" stroke-miterlimit="22.9256" d="M39.7,44.462
	c0,34.303,25.723,57.988,61.333,57.988c0-18.844-3.246-32.026-16.974-45.474C71.681,44.85,58.629,41.117,39.7,41.117V44.462z"/>
<path fill-rule="evenodd" clip-rule="evenodd" fill="#FFCC00" d="M40.815,229.577v6.691c19.648,0,31.288-3.966,44.328-17.005
	c13.18-13.18,17.005-24.61,17.005-44.328h-6.691C66.91,174.935,40.815,201.029,40.815,229.577z"/>
<path fill="none" stroke="#FFFFFF" stroke-width="0.5" stroke-miterlimit="22.9256" d="M40.815,229.577v6.691
	c19.648,0,31.288-3.966,44.328-17.005c13.18-13.18,17.005-24.61,17.005-44.328h-6.691C66.91,174.935,40.815,201.029,40.815,229.577z
	"/>
<path fill-rule="evenodd" clip-rule="evenodd" fill="#2F2483" d="M134.478,84.699l2.343,2.388l4.777-4.685
	c20.587-20.191,20.941-56.685,0.751-77.272l-4.685-4.777c-8.208,8.051-12.157,12.925-16.506,23.497
	c-2.778,6.752-3.162,13.71-3.249,20.471C117.736,57.577,121.669,71.639,134.478,84.699z"/>
<path fill="none" stroke="#FFFFFF" stroke-width="0.5" stroke-miterlimit="22.9256" d="M134.478,84.699l2.343,2.388l4.777-4.685
	c20.587-20.191,20.941-56.685,0.751-77.272l-4.685-4.777c-8.208,8.051-12.157,12.925-16.506,23.497
	c-2.778,6.752-3.162,13.71-3.249,20.471C117.736,57.577,121.669,71.639,134.478,84.699z"/>
<path fill-rule="evenodd" clip-rule="evenodd" fill="#00963F" d="M84.758,140.171l2.308-2.422l-4.844-4.616
	c-20.877-19.891-57.362-19.009-77.253,1.867l-4.615,4.844c8.324,7.931,13.33,11.712,24.042,15.701
	c6.842,2.548,13.808,2.695,20.569,2.554C58.219,157.822,72.139,153.416,84.758,140.171z"/>
<path fill="none" stroke="#FFFFFF" stroke-width="0.5" stroke-miterlimit="22.9256" d="M84.758,140.171l2.308-2.422l-4.844-4.616
	c-20.877-19.891-57.362-19.009-77.253,1.867l-4.615,4.844c8.324,7.931,13.33,11.712,24.042,15.701
	c6.842,2.548,13.808,2.695,20.569,2.554C58.219,157.822,72.139,153.416,84.758,140.171z"/>
<path fill-rule="evenodd" clip-rule="evenodd" fill="#EF7C00" d="M141.132,191.492l-2.429-2.3l-4.601,4.858
	c-19.827,20.938-18.833,57.42,2.104,77.247l4.858,4.601c7.906-8.348,11.671-13.366,15.627-24.09
	c2.527-6.851,2.653-13.817,2.491-20.577C158.864,217.978,154.415,204.07,141.132,191.492z"/>
<path fill="none" stroke="#FFFFFF" stroke-width="0.5" stroke-miterlimit="22.9256" d="M141.132,191.492l-2.429-2.3l-4.601,4.858
	c-19.827,20.938-18.833,57.42,2.104,77.247l4.858,4.601c7.906-8.348,11.671-13.366,15.627-24.09
	c2.527-6.851,2.653-13.817,2.491-20.577C158.864,217.978,154.415,204.07,141.132,191.492z"/>
<path d="M230.757,150.889h3.567l11.095-23.196v-2.268h-16.079v2.854h12.467v0.073L230.757,150.889z M200.327,150.889h14.9v-2.799
	h-11.442v-9.604h10.226v-2.799h-10.226v-8.396h10.857v-2.799h-14.314V150.889z M177.214,147.697
	c2.579,2.451,5.863,3.466,9.851,3.466c3.558,0,6.558-0.859,8.076-1.436v-12.723h-8.662v2.744h5.314v7.912
	c-0.777,0.393-2.268,0.705-4.491,0.705c-6.183,0-10.171-3.97-10.171-10.693c0-6.613,4.189-10.601,10.601-10.601
	c2.653,0,4.418,0.503,5.808,1.134l0.823-2.772c-1.125-0.512-3.549-1.216-6.558-1.216c-8.836,0-14.278,5.79-14.278,13.61
	C173.527,141.953,174.936,145.493,177.214,147.697z M129.341,150.889h3.457v-23.488h8.067v-2.908h-19.555v2.908h8.031V150.889z
	 M103.603,149.609c1.409,0.933,4.244,1.72,6.796,1.72c6.238,0,9.22-3.558,9.22-7.628c0-3.878-2.241-5.991-6.713-7.756
	c-3.65-1.409-5.259-2.625-5.259-5.086c0-1.802,1.372-3.96,4.985-3.96c2.396,0,4.162,0.787,5.021,1.253l0.905-2.78
	c-1.134-0.631-3.137-1.253-5.808-1.253c-5.14,0-8.598,3.055-8.598,7.125c0,3.723,2.707,6,7.024,7.482
	c3.576,1.372,4.985,2.781,4.985,5.25c0,2.661-2.039,4.5-5.534,4.5c-2.351,0-4.591-0.741-6.119-1.719L103.603,149.609z"/>
<path d="M230.622,159.237h0.535l1.428,2.317l1.474-2.317h0.487l-1.749,2.691v2.013h-0.434v-2L230.622,159.237z M223.005,159.237
	h0.556l2.3,3.946c0.016,0.023,0.035,0.064,0.06,0.118c0.023,0.055,0.052,0.124,0.082,0.206c-0.013-0.083-0.023-0.162-0.031-0.231
	c-0.008-0.071-0.011-0.133-0.011-0.189v-3.85h0.406v4.704h-0.526l-2.333-3.979c-0.026-0.046-0.051-0.097-0.073-0.152
	c-0.021-0.055-0.043-0.121-0.062-0.195c0.014,0.109,0.023,0.198,0.029,0.27c0.007,0.071,0.01,0.12,0.01,0.143v3.914h-0.407V159.237z
	 M216.297,159.237h0.537l1.864,4.704h-0.473l-0.497-1.281h-2.401l-0.493,1.281h-0.447L216.297,159.237z M216.556,159.627
	l-1.053,2.639h2.07L216.556,159.627z M208.369,159.237h0.98c0.519,0,0.914,0.113,1.186,0.338c0.273,0.225,0.409,0.553,0.409,0.983
	c0,0.428-0.146,0.762-0.44,1.003c-0.293,0.241-0.705,0.361-1.233,0.361h-0.468v2.02h-0.434V159.237z M208.803,159.623v1.905h0.468
	c0.382,0,0.678-0.085,0.886-0.254c0.209-0.17,0.313-0.41,0.313-0.722c0-0.29-0.095-0.519-0.284-0.682
	c-0.191-0.164-0.454-0.246-0.793-0.246H208.803z M198.645,159.237h0.658l1.585,3.871c0.024,0.054,0.045,0.116,0.064,0.183
	c0.017,0.068,0.033,0.145,0.046,0.23c0.006-0.069,0.017-0.134,0.033-0.199c0.016-0.064,0.036-0.127,0.063-0.189l1.667-3.896h0.642
	v4.704h-0.406v-3.966c0-0.006-0.001-0.024-0.003-0.052c-0.003-0.029-0.003-0.057-0.003-0.084c0-0.044,0.003-0.088,0.009-0.134
	c0.005-0.045,0.014-0.094,0.024-0.145c-0.052,0.115-0.098,0.225-0.139,0.331c-0.003,0.011-0.007,0.018-0.009,0.02l-1.701,4.029
	h-0.377l-1.674-4.029c-0.011-0.025-0.037-0.103-0.077-0.235c-0.013-0.049-0.023-0.087-0.033-0.116
	c0.007,0.079,0.015,0.165,0.025,0.256c0.01,0.092,0.015,0.145,0.015,0.157v3.966h-0.406V159.237z M191.877,159.155
	c0.628,0,1.13,0.219,1.502,0.656c0.373,0.439,0.559,1.03,0.559,1.775c0,0.746-0.187,1.339-0.559,1.777
	c-0.373,0.44-0.875,0.659-1.502,0.659c-0.632,0-1.134-0.22-1.507-0.66c-0.373-0.441-0.559-1.033-0.559-1.776
	c0-0.742,0.186-1.334,0.559-1.772C190.742,159.374,191.245,159.155,191.877,159.155z M191.877,159.541
	c-0.484,0-0.87,0.185-1.158,0.555c-0.289,0.37-0.434,0.865-0.434,1.483c0,0.621,0.145,1.116,0.434,1.487
	c0.288,0.37,0.674,0.556,1.158,0.556c0.482,0,0.869-0.185,1.159-0.556c0.29-0.371,0.435-0.866,0.435-1.487
	c0-0.619-0.145-1.114-0.435-1.483C192.745,159.727,192.359,159.541,191.877,159.541z M185.604,159.386v0.429
	c-0.185-0.071-0.361-0.123-0.53-0.156c-0.167-0.033-0.332-0.05-0.493-0.05c-0.611,0-1.091,0.179-1.439,0.538
	c-0.347,0.358-0.521,0.853-0.521,1.484c0,0.598,0.174,1.068,0.521,1.41c0.348,0.342,0.827,0.513,1.438,0.513
	c0.181,0,0.354-0.016,0.518-0.046c0.164-0.031,0.323-0.078,0.478-0.142v0.439c-0.146,0.051-0.307,0.088-0.483,0.113
	c-0.176,0.024-0.375,0.036-0.596,0.036c-0.717,0-1.289-0.211-1.714-0.632c-0.425-0.421-0.638-0.987-0.638-1.698
	c0-0.733,0.221-1.316,0.663-1.75c0.442-0.434,1.035-0.651,1.778-0.651c0.199,0,0.384,0.014,0.555,0.039
	C185.314,159.29,185.467,159.33,185.604,159.386z M171.051,159.237h3.186v0.406h-1.376v4.298h-0.434v-4.298h-1.376V159.237z
	 M163.299,159.237h0.556l2.3,3.946c0.016,0.023,0.035,0.064,0.06,0.118c0.023,0.055,0.052,0.124,0.082,0.206
	c-0.013-0.083-0.023-0.162-0.031-0.231c-0.008-0.071-0.011-0.133-0.011-0.189v-3.85h0.407v4.704h-0.526l-2.333-3.979
	c-0.026-0.046-0.051-0.097-0.073-0.152c-0.021-0.055-0.043-0.121-0.062-0.195c0.014,0.109,0.023,0.198,0.029,0.27
	c0.007,0.071,0.01,0.12,0.01,0.143v3.914h-0.407V159.237z M156.159,159.237h2.291v0.373h-1.857v1.695h1.756v0.393h-1.756v1.837
	h1.898v0.406h-2.332V159.237z M147.805,159.237h0.473l1.506,4.224l1.572-4.224h0.441l-1.791,4.704h-0.467L147.805,159.237z
	 M141.208,159.237h2.291v0.373h-1.857v1.695h1.756v0.393h-1.756v1.837h1.898v0.406h-2.332V159.237z M130.274,159.237h2.291v0.373
	h-1.857v1.695h1.756v0.393h-1.756v1.837h1.898v0.406h-2.332V159.237z M122.049,159.237h0.434v2.06h2.393v-2.06h0.434v4.704h-0.434
	v-2.25h-2.393v2.25h-0.434V159.237z M114.475,159.237h3.186v0.406h-1.376v4.298h-0.434v-4.298h-1.376V159.237z"/>
<polygon fill-rule="evenodd" clip-rule="evenodd" fill="#A61380" points="140.812,150.938 138.545,150.938 167.361,109.695 
	169.871,109.695 169.871,150.775 167.642,150.775 167.642,111.921 "/>
</svg>
